<?xml version="1.0" encoding="UTF-8" standalone="no"?>
<svg width="114px" height="32px" viewBox="0 0 114 32" version="1.1" xmlns="http://www.w3.org/2000/svg" xmlns:xlink="http://www.w3.org/1999/xlink">
    <!-- Generator: Sketch 50.2 (55047) - http://www.bohemiancoding.com/sketch -->
    <title>Group</title>
    <desc>Created with Sketch.</desc>
    <defs>
        <radialGradient cx="50%" cy="50%" fx="50%" fy="50%" r="102.439024%" gradientTransform="translate(0.500000,0.500000),scale(1.000000,0.976190),rotate(90.000000),translate(-0.500000,-0.500000)" id="radialGradient-1">
            <stop stop-color="#FFFFFF" offset="0%"></stop>
            <stop stop-color="#F9B433" offset="100%"></stop>
        </radialGradient>
        <path d="M46.5668912,18.1485315 C46.5668912,19.2513062 46.1620341,20.1222346 45.3523078,20.7613427 C44.5550389,21.4004507 43.5646962,21.72 42.3812501,21.72 C41.6338104,21.72 40.9860391,21.6134836 40.4379167,21.4004476 C39.802593,21.1623485 39.1610503,20.7362828 38.5132693,20.1222378 L37.7471474,21.5508252 L37.3921154,21.5508252 L37.28,16.8703217 L37.7284615,16.8327273 C38.3886999,19.7149794 39.9396139,21.1560839 42.3812501,21.1560839 C43.215891,21.1560839 43.9570909,20.9242541 44.6048719,20.4605874 C45.3273969,19.9342631 45.688654,19.2638362 45.688654,18.4492867 C45.688654,17.4592957 45.2277398,16.6948838 44.3058976,16.156028 C43.9570924,15.9555235 43.078864,15.6234429 41.671186,15.1597762 C40.3631666,14.7462357 39.4413382,14.3577641 38.9056731,13.9943497 C38.0087455,13.3677731 37.5602885,12.5469701 37.5602885,11.5319161 C37.5602885,10.5795197 37.9028598,9.79631076 38.5880128,9.18226573 C39.2856232,8.58075224 40.1825373,8.28 41.2787821,8.28 C42.6615455,8.28 43.8325167,8.77498806 44.7917309,9.76497902 L45.4083655,8.39278322 L45.8007694,8.39278322 L45.9876284,12.6785455 L45.5204809,12.6785455 C45.1841331,11.4379239 44.7232189,10.5168701 44.1377245,9.91535664 C43.4525715,9.20105937 42.5182859,8.84391608 41.3348398,8.84391608 C40.5375709,8.84391608 39.8648853,9.03188623 39.3167629,9.40783217 C38.6814392,9.85896729 38.3637821,10.4855345 38.3637821,11.2875524 C38.3637821,12.0895704 38.8060106,12.7286689 39.6904808,13.2048671 C39.964542,13.342714 40.761799,13.6246692 42.0822757,14.0507413 C43.6394417,14.5520025 44.6546986,14.9592712 45.1280771,15.2725594 C46.0872913,15.9241991 46.5668912,16.8828468 46.5668912,18.1485315 Z M57.1983884,21.2312727 L54.713164,21.4192448 L54.713164,19.9342657 C54.065383,21.1122297 53.1186403,21.7012028 51.8729076,21.7012028 C49.9295645,21.7012028 48.9579075,20.5859133 48.9579075,18.3553007 L48.9579075,13.9755524 C48.9579075,13.5369489 48.864479,13.2549936 48.6776191,13.1296783 C48.5530458,13.0419576 48.303903,12.9980979 47.9301831,12.9980979 L47.5004075,12.9980979 L47.5004075,12.4717762 L49.8548306,12.171021 L49.8548306,18.4868811 C49.8548306,20.2412955 50.5835733,21.1184895 52.0410806,21.1184895 C52.8632643,21.1184895 53.5234927,20.7738776 54.0217858,20.0846434 C54.4827069,19.4455353 54.713164,18.6748577 54.713164,17.7725874 L54.713164,13.9755524 C54.713164,13.5369489 54.6197355,13.2549936 54.4328756,13.1296783 C54.3083023,13.0419576 54.0591595,12.9980979 53.6854397,12.9980979 L53.255664,12.9980979 L53.255664,12.4717762 L55.628773,12.171021 L55.628773,19.8026853 C55.628773,20.2036943 55.715973,20.4543212 55.8903756,20.5545734 C56.0274062,20.6422941 56.2890061,20.6861538 56.6751833,20.6861538 L57.1983884,20.6861538 L57.1983884,21.2312727 Z M67.9233152,21.438042 L63.8311036,21.438042 L63.8311036,20.8741259 L64.3356228,20.8741259 C65.0581478,20.8741259 65.4194049,20.5357796 65.4194049,19.8590769 L65.4194049,15.4605315 C65.4194049,14.7086396 65.2512335,14.0946038 64.9148856,13.6184056 C64.5287085,13.0544867 63.9619086,12.7725315 63.2144689,12.7725315 C62.6788038,12.7725315 62.1244611,13.0231583 61.551424,13.5244196 C61.0282163,13.9755547 60.6295878,14.5144025 60.3555266,15.140979 L60.3555266,19.8590769 C60.3555266,20.5357796 60.7167836,20.8741259 61.4393086,20.8741259 L61.9438279,20.8741259 L61.9438279,21.438042 L57.8516163,21.438042 L57.8516163,20.8741259 L58.3748214,20.8741259 C59.0848891,20.8741259 59.4399176,20.5357796 59.4399176,19.8590769 L59.4399176,14.0507413 C59.4399176,13.6121377 59.3963176,13.3301824 59.3091163,13.2048671 C59.2094577,13.0670203 58.972772,12.9980979 58.5990522,12.9980979 L57.8516163,12.9980979 L57.8516163,12.452979 L60.3555266,12.171021 L60.3555266,14.0695385 C61.2275395,12.8038538 62.2863964,12.171021 63.5321292,12.171021 C64.3916848,12.171021 65.0768275,12.4655075 65.5875779,13.0544895 C66.0983284,13.6434715 66.3536998,14.4392118 66.3536998,15.4417343 L66.3536998,19.8590769 C66.3536998,20.5357796 66.7149568,20.8741259 67.4374818,20.8741259 L67.9233152,20.8741259 L67.9233152,21.438042 Z M77.6392034,21.438042 L75.3595239,21.7012028 L75.3595239,19.7650909 C74.7491148,21.0683702 73.8459722,21.72 72.6500687,21.72 C71.4292506,21.72 70.4762794,21.2312776 69.7911264,20.2538182 C69.16826,19.3640795 68.8568315,18.2299929 68.8568315,16.8515245 C68.8568315,15.5733083 69.2056314,14.4705501 69.9032417,13.5432168 C70.5883948,12.6158835 71.454166,12.1522238 72.5005815,12.1522238 C73.7836863,12.1522238 74.7366575,12.8289163 75.3595239,14.1823217 L75.3595239,10.1409231 C75.3595239,9.66472489 75.284781,9.37023833 75.1352931,9.25745455 C74.9982625,9.14467076 74.6619197,9.08827972 74.1262546,9.08827972 L74.1262546,8.54316084 C74.5996331,8.54316084 75.3159187,8.46170711 76.2751329,8.2987972 L76.2751329,19.5771189 C76.2751329,20.0783801 76.3810186,20.4229921 76.5927931,20.610965 C76.7921104,20.8114695 77.1409103,20.9117203 77.6392034,20.9117203 L77.6392034,21.438042 Z M75.3221521,17.0770909 C75.3221521,15.9617846 75.091695,14.9655428 74.6307739,14.0883357 C74.1075661,13.1359393 73.4473377,12.6597483 72.6500687,12.6597483 C71.7531411,12.6597483 71.0679984,13.0795482 70.59462,13.9191608 C70.1835282,14.6585212 69.9779853,15.6234346 69.9779853,16.8139301 C69.9779853,19.7337768 70.8748995,21.1936783 72.6687546,21.1936783 C73.3788223,21.1936783 73.9892222,20.8240037 74.4999726,20.0846434 C75.048095,19.2951569 75.3221521,18.2926494 75.3221521,17.0770909 Z M87.2429763,20.5357762 C87.2429763,20.7362807 87.1184049,20.9430479 86.8692583,21.1560839 C86.5951971,21.4067145 86.2899972,21.532028 85.9536493,21.532028 C85.1563804,21.532028 84.726609,20.9430548 84.6643224,19.7650909 C83.7923095,21.0558386 82.6462525,21.7012028 81.2261172,21.7012028 C79.5194633,21.7012028 78.6661492,20.9743849 78.6661492,19.5207273 C78.6661492,18.405421 79.3886634,17.528227 80.8337134,16.8891189 C81.8302996,16.4379838 83.1071565,16.1247002 84.6643224,15.9492587 L84.6643224,14.4454825 C84.6643224,13.8314375 84.4276367,13.3740435 83.9542583,13.0732867 C83.5556238,12.8226561 83.044881,12.6973427 82.4220147,12.6973427 C81.8614349,12.6973427 81.3756064,12.8038591 80.9645146,13.0168951 C80.5534228,13.2173996 80.34788,13.4241668 80.34788,13.6372028 C80.34788,13.6998605 80.4163943,13.8063769 80.5534249,13.9567552 C80.6779982,14.0946021 80.7402839,14.2324469 80.7402839,14.3702937 C80.7402839,14.9216811 80.4599982,15.1973706 79.8994185,15.1973706 C79.7125586,15.1973706 79.5443872,15.1221826 79.3948992,14.9718042 C79.2578686,14.8088943 79.1893544,14.6021271 79.1893544,14.3514965 C79.1893544,13.7249199 79.5381543,13.1986035 80.2357646,12.7725315 C80.896003,12.3715225 81.64966,12.171021 82.4967583,12.171021 C83.5556311,12.171021 84.3279738,12.3777881 84.8138096,12.7913287 C85.3121027,13.1923377 85.5612455,13.8439675 85.5612455,14.7462378 L85.5612455,19.6147133 C85.5612455,20.3540736 85.8103883,20.7237483 86.3086814,20.7237483 C86.4706267,20.7237483 86.6201123,20.6610915 86.7571429,20.5357762 C86.9066309,20.3979294 87.0125166,20.329007 87.0748032,20.329007 C87.1869192,20.329007 87.2429763,20.3979294 87.2429763,20.5357762 Z M84.6643224,18.5432727 L84.6643224,16.437986 C81.4254173,16.9517788 79.805989,17.9354892 79.805989,19.3891469 C79.805989,20.4919216 80.428846,21.0433007 81.6745788,21.0433007 C82.2974451,21.0433007 82.8891593,20.8052052 83.449739,20.329007 C84.0103188,19.8528088 84.4151758,19.25757 84.6643224,18.5432727 Z M98.0613325,21.438042 L93.9691209,21.438042 L93.9691209,20.8741259 L94.4736401,20.8741259 C95.1961651,20.8741259 95.5574222,20.5357796 95.5574222,19.8590769 L95.5574222,15.4605315 C95.5574222,14.7086396 95.3892508,14.0946038 95.052903,13.6184056 C94.6667258,13.0544867 94.0999259,12.7725315 93.3524863,12.7725315 C92.8168212,12.7725315 92.2624784,13.0231583 91.6894414,13.5244196 C91.1662336,13.9755547 90.7676051,14.5144025 90.4935439,15.140979 L90.4935439,19.8590769 C90.4935439,20.5357796 90.854801,20.8741259 91.577326,20.8741259 L92.0818452,20.8741259 L92.0818452,21.438042 L87.9896336,21.438042 L87.9896336,20.8741259 L88.5128388,20.8741259 C89.2229064,20.8741259 89.5779349,20.5357796 89.5779349,19.8590769 L89.5779349,14.0507413 C89.5779349,13.6121377 89.5343349,13.3301824 89.4471336,13.2048671 C89.347475,13.0670203 89.1107893,12.9980979 88.7370695,12.9980979 L87.9896336,12.9980979 L87.9896336,12.452979 L90.4935439,12.171021 L90.4935439,14.0695385 C91.3655568,12.8038538 92.4244138,12.171021 93.6701465,12.171021 C94.5297021,12.171021 95.2148449,12.4655075 95.7255953,13.0544895 C96.2363457,13.6434715 96.4917171,14.4392118 96.4917171,15.4417343 L96.4917171,19.8590769 C96.4917171,20.5357796 96.8529742,20.8741259 97.5754992,20.8741259 L98.0613325,20.8741259 L98.0613325,21.438042 Z M106.301035,18.9756084 C105.628339,20.7926804 104.494739,21.7012028 102.900201,21.7012028 C101.816414,21.7012028 100.894586,21.2751371 100.134689,20.422993 C99.3747916,19.5708489 98.9948488,18.4868877 98.9948488,17.1710769 C98.9948488,15.7299508 99.3498773,14.5582702 100.059945,13.656 C100.832299,12.666009 101.922299,12.171021 103.329977,12.171021 C104.251819,12.171021 104.974333,12.4467105 105.497541,12.9980979 C105.896176,13.4116384 106.09549,13.8189071 106.09549,14.2199161 C106.09549,14.9843395 105.784061,15.3665455 105.161195,15.3665455 C104.899591,15.3665455 104.68782,15.2913574 104.525875,15.140979 C104.376387,14.9906006 104.301644,14.8026305 104.301644,14.5770629 C104.301644,14.3389638 104.395072,14.144728 104.581932,13.9943497 C104.768792,13.8314397 104.862221,13.7061263 104.862221,13.6184056 C104.862221,13.367775 104.700278,13.1484765 104.376387,12.9605035 C104.04004,12.7725305 103.69124,12.6785455 103.329977,12.6785455 C102.221275,12.6785455 101.386647,13.1296738 100.826067,14.0319441 C100.365146,14.7838359 100.134689,15.7487494 100.134689,16.9267133 C100.134689,19.608461 101.199774,20.9493147 103.329977,20.9493147 C103.82827,20.9493147 104.320327,20.7488132 104.806163,20.3478042 C105.291999,19.9342637 105.67817,19.4079473 105.964689,18.7688392 L106.301035,18.9756084 Z M115.12,19.125986 C114.310274,20.8428058 113.101931,21.7012028 111.494936,21.7012028 C110.274118,21.7012028 109.283775,21.2375431 108.523878,20.3102098 C107.788896,19.4204711 107.42141,18.2989159 107.42141,16.9455105 C107.42141,15.6171682 107.757753,14.5081443 108.430449,13.6184056 C109.152974,12.6534777 110.137088,12.171021 111.38282,12.171021 C112.541352,12.171021 113.469409,12.6722747 114.167019,13.6747972 C114.802343,14.5770674 115.12,15.6798257 115.12,16.9831049 L108.56125,16.9831049 C108.56125,18.1736004 108.835307,19.1197168 109.383429,19.8214825 C109.956466,20.5608429 110.759952,20.9305175 111.79391,20.9305175 C112.964899,20.9305175 113.949013,20.2538249 114.746282,18.9004196 L115.12,19.125986 Z M113.98016,15.7048951 C113.98016,15.040724 113.737246,14.3890941 113.25141,13.749986 C112.703288,13.0356887 112.061745,12.6785455 111.326763,12.6785455 C110.517036,12.6785455 109.838122,13.0858141 109.29,13.9003636 C108.804164,14.6271924 108.555021,15.4667924 108.542564,16.4191888 L113.139295,16.4191888 C113.438271,16.4191888 113.650042,16.3753291 113.774615,16.2876084 C113.911646,16.1998877 113.98016,16.0056519 113.98016,15.7048951 Z" id="path-2"></path>
    </defs>
    <g id="Wireframes-Copy" stroke="none" stroke-width="1" fill="none" fill-rule="evenodd">
        <g id="FAQ" transform="translate(-42.000000, -34.000000)">
            <g id="Group" transform="translate(40.000000, 33.000000)">
                <rect id="Rectangle" x="0" y="0" width="116" height="34"></rect>
                <text id="Face-Spa-Copy-5" font-family="Raleway-Light, Raleway" font-size="7.84" font-weight="300" letter-spacing="-0.000762222114" fill="#333333">
                    <tspan x="36.16" y="29.84">Face Spa</tspan>
                </text>
                <ellipse id="Oval-13-Copy" fill="url(#radialGradient-1)" cx="16.84" cy="17.24" rx="11.48" ry="11.76"></ellipse>
                <polygon id="Star-Copy-2" stroke="#652952" stroke-width="0.76" fill="#284703" points="17.4 24.94 12.6411383 32.138862 12.8740536 23.4159556 4.94113829 26.3410526 10.0768648 19.4259556 2 16.96 10.0768648 14.4940444 4.94113829 7.57894737 12.8740536 10.5040444 12.6411383 1.781138 17.4 8.98 22.1588617 1.781138 21.9259464 10.5040444 29.8588617 7.57894737 24.7231352 14.4940444 32.8 16.96 24.7231352 19.4259556 29.8588617 26.3410526 21.9259464 23.4159556 22.1588617 32.138862"></polygon>
                <circle id="Oval-13-Copy-2" fill="#FFFFFF" cx="17.12" cy="17.24" r="8.96"></circle>
                <mask id="mask-3" fill="white">
                    <use xlink:href="#path-2"></use>
                </mask>
                <use id="Sundance-Copy-4" stroke="#333333" stroke-width="0.5" fill="#333333" xlink:href="#path-2"></use>
            </g>
        </g>
    </g>
</svg>